<?xml version="1.0" encoding="UTF-8"?>
<svg xmlns="http://www.w3.org/2000/svg" width="480" height="240" viewBox="0 0 480 240">
  <!-- Background -->
  <rect width="100%" height="100%" fill="#333333"/>

  <!-- Contour lines (soft white, light density) -->
  <g fill="none" stroke="#FFFFFF" stroke-opacity="0.6" stroke-width="1">

    <!-- Cluster 1 -->
    <path d="M120,120
             C 100,110 80,110 68,124
             C 54,139 58,160 76,170
             C 94,180 120,178 135,162
             C 150,146 146,128 120,120 Z"/>
    <path d="M120,120
             C 110,116 95,118 86,128
             C 76,140 79,154 93,161
             C 108,169 124,165 133,154
             C 142,144 140,130 120,120 Z"/>
    <path d="M120,120
             C 114,118 104,120 98,128
             C 91,136 92,146 102,150
             C 112,154 122,152 128,146
             C 134,140 133,130 120,120 Z"/>

    <!-- Cluster 2 -->
    <path d="M330,88
             C 310,78 285,82 272,97
             C 258,112 260,132 278,144
             C 296,156 324,154 340,138
             C 356,122 356,100 330,88 Z"/>
    <path d="M330,88
             C 317,82 296,86 286,98
             C 275,112 277,127 292,136
             C 307,146 326,144 336,134
             C 346,124 346,104 330,88 Z"/>
    <path d="M330,88
             C 322,84 304,88 296,98
             C 288,108 290,122 304,128
             C 318,136 330,134 338,126
             C 346,118 344,104 330,88 Z"/>

    <!-- Cluster 3 -->
    <path d="M228,190
             C 206,180 184,188 174,204
             C 162,222 170,240 190,244
             C 212,248 234,238 244,222
             C 254,206 250,198 228,190 Z"/>
    <path d="M228,190
             C 214,184 194,192 186,204
             C 176,218 182,232 198,234
             C 214,236 230,230 238,218
             C 246,206 244,198 228,190 Z"/>
    <path d="M228,190
             C 220,186 204,194 198,204
             C 192,214 196,224 210,226
             C 222,228 232,224 238,214
             C 244,206 242,198 228,190 Z"/>

    <!-- Small stray rings for natural feel -->
    <path d="M54,66 C46,60 34,62 28,70 C22,78 24,88 34,92 C44,96 54,92 58,84 C62,76 60,70 54,66 Z"/>
    <path d="M410,176 C402,170 390,172 384,180 C378,188 380,198 390,202 C400,206 410,202 414,194 C418,186 416,180 410,176 Z"/>
    <path d="M432,42 C422,36 408,38 402,46 C396,54 398,64 408,68 C418,72 430,70 436,62 C442,54 440,46 432,42 Z"/>
  </g>
</svg>