<?xml version="1.0" encoding="UTF-8"?>
<svg xmlns="http://www.w3.org/2000/svg" width="512" height="256" viewBox="0 0 512 256">
  <!-- Background -->
  <rect width="100%" height="100%" fill="#333333"/>

  <!-- Contours: soft white, light density -->
  <g fill="none" stroke="#FFFFFF" stroke-opacity="0.60" stroke-linecap="round" stroke-linejoin="round">

    <!-- Ridge / saddle running vertically-ish to break symmetry -->
    <path stroke-width="1"
      d="M256,-10 C260,26 258,54 248,86 C238,118 234,148 246,188 C258,228 264,264 260,272" />
    <path stroke-width="1"
      d="M270,-12 C274,24 272,56 262,88 C252,120 250,152 262,190 C274,228 280,262 276,272" />

    <!-- Cluster A (upper-left) -->
    <path stroke-width="1.2"
      d="M92,46 C65,54 50,76 52,98 C54,124 74,140 104,146 C136,152 162,144 176,126 C190,108 186,82 166,66 C146,50 118,40 92,46 Z"/>
    <path stroke-width="1"
      d="M102,60 C82,66 70,84 72,100 C74,120 90,132 114,136 C140,140 160,134 170,122 C180,110 178,92 162,80 C146,68 122,54 102,60 Z"/>
    <path stroke-width="0.9"
      d="M114,74 C98,78 88,92 90,106 C92,120 104,128 122,130 C142,132 156,126 164,118 C172,110 170,96 158,88 C146,80 130,70 114,74 Z"/>
    <path stroke-width="0.9"
      d="M126,88 C114,90 106,100 108,110 C110,120 118,126 132,126 C146,126 156,122 160,116 C164,110 162,100 154,94 C146,88 138,86 126,88 Z"/>

    <!-- Cluster B (center-left, elongated) -->
    <path stroke-width="1.2"
      d="M208,128 C188,116 164,116 150,128 C132,144 134,168 152,186 C170,204 198,210 220,202 C244,192 250,168 236,148 C226,134 220,134 208,128 Z"/>
    <path stroke-width="1"
      d="M202,142 C188,136 170,138 160,148 C148,160 150,174 162,186 C176,198 196,202 212,196 C228,190 234,176 226,162 C220,152 214,148 202,142 Z"/>
    <path stroke-width="0.9"
      d="M198,156 C188,152 176,154 170,160 C162,168 164,176 172,184 C182,192 196,194 206,190 C216,186 220,176 214,166 C210,160 206,158 198,156 Z"/>

    <!-- Cluster C (upper-right) -->
    <path stroke-width="1.2"
      d="M386,44 C360,42 332,54 320,72 C306,94 314,118 340,132 C366,146 402,144 426,128 C450,112 452,90 432,74 C414,60 410,46 386,44 Z"/>
    <path stroke-width="1"
      d="M380,58 C358,58 340,68 332,82 C322,98 330,114 352,126 C374,138 402,136 420,124 C438,112 440,96 426,84 C412,72 402,58 380,58 Z"/>
    <path stroke-width="0.9"
      d="M374,72 C358,74 346,82 342,90 C336,102 344,112 362,120 C382,128 404,126 418,116 C430,108 432,96 422,88 C410,78 392,70 374,72 Z"/>

    <!-- Cluster D (lower-right) -->
    <path stroke-width="1.2"
      d="M404,204 C386,196 362,198 348,210 C330,226 332,248 352,260 C372,272 402,270 422,256 C442,242 444,222 428,212 C420,206 414,206 404,204 Z"/>
    <path stroke-width="1"
      d="M398,216 C384,210 368,212 360,220 C350,230 352,242 364,250 C378,258 396,258 410,250 C424,242 426,230 416,224 C410,220 406,218 398,216 Z"/>
    <path stroke-width="0.9"
      d="M394,228 C386,224 376,226 372,230 C366,236 368,242 376,248 C384,254 394,254 404,248 C412,244 414,236 408,232 C404,230 400,230 394,228 Z"/>

    <!-- Small closed rings sprinkled for naturalism -->
    <path stroke-width="0.9"
      d="M300,28 C292,24 280,26 274,32 C268,40 270,50 280,54 C290,58 302,56 308,50 C314,44 310,32 300,28 Z"/>
    <path stroke-width="0.9"
      d="M54,206 C46,202 34,204 28,210 C22,216 24,226 34,230 C44,234 56,232 62,226 C68,220 64,210 54,206 Z"/>
    <path stroke-width="0.9"
      d="M478,86 C470,82 458,84 452,90 C446,96 448,106 458,110 C468,114 480,112 486,106 C492,100 488,90 478,86 Z"/>

    <!-- A couple of “folds” to hint at ridges/valleys crossing clusters -->
    <path stroke-width="0.9"
      d="M12,126 C48,118 86,120 126,132 C166,144 204,148 242,144 C280,140 320,128 352,118 C384,108 416,104 500,110" />
    <path stroke-width="0.9"
      d="M6,150 C40,146 84,152 120,166 C156,180 196,186 238,182 C280,178 322,166 356,156 C390,146 430,144 506,150" />
  </g>
</svg>