<svg xmlns="http://www.w3.org/2000/svg" width="600" height="400">
  <rect width="100%" height="100%" fill="#333333"/>
  <g fill="none" stroke="#FFFFFF" stroke-width="1">
    <path d="M-50 40 C 50 10, 150 70, 250 40 S 450 10, 550 40" />
    <path d="M-80 90 C 20 60, 120 120, 220 90 S 420 60, 520 90" />
    <path d="M-60 140 C 40 110, 140 170, 240 140 S 440 110, 540 140" />
    <path d="M-70 190 C 30 160, 130 220, 230 190 S 430 160, 530 190" />
    <path d="M-40 240 C 60 210, 160 270, 260 240 S 460 210, 560 240" />
    <path d="M-90 290 C 10 260, 110 320, 210 290 S 410 260, 510 290" />
    <path d="M-50 340 C 50 310, 150 370, 250 340 S 450 310, 550 340" />
  </g>
</svg>